<svg width="32" height="32" viewBox="0 0 32 32" fill="none" xmlns="http://www.w3.org/2000/svg">
<rect width="32" height="32" fill="#272624"/>
<path d="M0.996094 23.0161V22.813C1.15755 22.7375 1.26042 22.6776 1.30469 22.6333C1.33073 22.6099 1.34896 22.5799 1.35938 22.5435C1.38281 22.4705 1.39844 22.3143 1.40625 22.0747C1.41667 21.7179 1.42188 21.5057 1.42188 21.438V19.3364C1.42188 18.9823 1.41797 18.6359 1.41016 18.2974C1.40234 18.05 1.38281 17.9041 1.35156 17.8599C1.32292 17.813 1.27474 17.7791 1.20703 17.7583C1.14193 17.7349 0.954427 17.7205 0.644531 17.7153V17.4653C1.27995 17.4862 1.67318 17.4966 1.82422 17.4966C1.99089 17.4966 2.36458 17.4862 2.94531 17.4653V17.7153C2.63542 17.7205 2.44661 17.7349 2.37891 17.7583C2.3138 17.7791 2.26823 17.8091 2.24219 17.8481C2.21094 17.9002 2.19141 18.0265 2.18359 18.2271C2.18099 18.2791 2.17578 18.6489 2.16797 19.3364V21.9614C2.16797 22.2349 2.17318 22.4575 2.18359 22.6294C2.48047 22.6476 2.77474 22.6567 3.06641 22.6567C3.80078 22.6567 4.3151 22.6099 4.60938 22.5161C4.64323 22.438 4.67318 22.3481 4.69922 22.2466L4.85547 21.5981H5.11719C5.0599 21.9862 5.00391 22.4419 4.94922 22.9653C4.84245 22.9862 4.75781 22.9992 4.69531 23.0044C4.5599 23.0122 4.35156 23.0161 4.07031 23.0161L1.75781 22.9849C1.50781 22.9849 1.25391 22.9953 0.996094 23.0161ZM5.74203 20.2778C5.74203 19.8664 5.80323 19.4862 5.92562 19.1372C6.05062 18.7882 6.25635 18.4744 6.54281 18.1958C6.82927 17.9172 7.15349 17.7075 7.51547 17.5669C7.87745 17.4237 8.29151 17.3521 8.75766 17.3521C9.18734 17.3521 9.57797 17.4132 9.92953 17.5356C10.2811 17.6554 10.5689 17.8156 10.7928 18.0161C11.0194 18.214 11.1978 18.4315 11.328 18.6685C11.4269 18.8455 11.5051 19.0539 11.5623 19.2935C11.6222 19.533 11.6522 19.7896 11.6522 20.063C11.6522 20.9406 11.3566 21.6711 10.7655 22.2544C10.1769 22.8377 9.43344 23.1294 8.535 23.1294C8.12615 23.1294 7.74464 23.063 7.39047 22.9302C7.0363 22.7974 6.73682 22.6007 6.49203 22.3403C6.24724 22.0773 6.06104 21.7596 5.93344 21.3872C5.80583 21.0122 5.74203 20.6424 5.74203 20.2778ZM6.55453 19.9536C6.55453 20.201 6.57927 20.4523 6.62875 20.7075C6.67823 20.9627 6.74073 21.1828 6.81625 21.3677C6.94125 21.6802 7.10401 21.9432 7.30453 22.1567C7.50766 22.3677 7.73292 22.5239 7.98031 22.6255C8.23031 22.7244 8.50635 22.7739 8.80844 22.7739C9.22771 22.7739 9.59229 22.6724 9.90219 22.4692C10.2121 22.2635 10.4426 21.9757 10.5936 21.606C10.7472 21.2336 10.8241 20.8052 10.8241 20.3208C10.8241 19.9067 10.7694 19.5252 10.66 19.1763C10.5923 18.9627 10.5024 18.77 10.3905 18.5981C10.2785 18.4237 10.1444 18.2726 9.98812 18.145C9.83448 18.0148 9.63396 17.9054 9.38656 17.8169C9.13917 17.7284 8.87224 17.6841 8.58578 17.6841C8.17172 17.6841 7.80844 17.7765 7.49594 17.9614C7.18344 18.1463 6.94776 18.4146 6.78891 18.7661C6.63266 19.1151 6.55453 19.5109 6.55453 19.9536ZM12.1911 20.2778C12.1911 19.8664 12.2523 19.4862 12.3747 19.1372C12.4997 18.7882 12.7054 18.4744 12.9919 18.1958C13.2783 17.9172 13.6026 17.7075 13.9645 17.5669C14.3265 17.4237 14.7406 17.3521 15.2067 17.3521C15.6364 17.3521 16.027 17.4132 16.3786 17.5356C16.7302 17.6554 17.0179 17.8156 17.2419 18.0161C17.4684 18.214 17.6468 18.4315 17.777 18.6685C17.876 18.8455 17.9541 19.0539 18.0114 19.2935C18.0713 19.533 18.1012 19.7896 18.1012 20.063C18.1012 20.9406 17.8057 21.6711 17.2145 22.2544C16.626 22.8377 15.8825 23.1294 14.9841 23.1294C14.5752 23.1294 14.1937 23.063 13.8395 22.9302C13.4854 22.7974 13.1859 22.6007 12.9411 22.3403C12.6963 22.0773 12.5101 21.7596 12.3825 21.3872C12.2549 21.0122 12.1911 20.6424 12.1911 20.2778ZM13.0036 19.9536C13.0036 20.201 13.0283 20.4523 13.0778 20.7075C13.1273 20.9627 13.1898 21.1828 13.2653 21.3677C13.3903 21.6802 13.5531 21.9432 13.7536 22.1567C13.9567 22.3677 14.182 22.5239 14.4294 22.6255C14.6794 22.7244 14.9554 22.7739 15.2575 22.7739C15.6768 22.7739 16.0414 22.6724 16.3512 22.4692C16.6611 22.2635 16.8916 21.9757 17.0427 21.606C17.1963 21.2336 17.2731 20.8052 17.2731 20.3208C17.2731 19.9067 17.2184 19.5252 17.1091 19.1763C17.0414 18.9627 16.9515 18.77 16.8395 18.5981C16.7276 18.4237 16.5934 18.2726 16.4372 18.145C16.2835 18.0148 16.083 17.9054 15.8356 17.8169C15.5882 17.7284 15.3213 17.6841 15.0348 17.6841C14.6208 17.6841 14.2575 17.7765 13.945 17.9614C13.6325 18.1463 13.3968 18.4146 13.238 18.7661C13.0817 19.1151 13.0036 19.5109 13.0036 19.9536ZM18.6597 17.7153V17.4653C19.1831 17.481 19.5972 17.4888 19.9019 17.4888C20.105 17.4888 20.3211 17.4862 20.5503 17.481L21.1636 17.4614C21.2313 17.4588 21.2938 17.4575 21.3511 17.4575C21.7652 17.4575 22.0907 17.5031 22.3277 17.5942C22.5646 17.6854 22.7495 17.8312 22.8823 18.0317C23.0152 18.2297 23.0816 18.4562 23.0816 18.7114C23.0816 18.9406 23.0256 19.1685 22.9136 19.395C22.8042 19.6216 22.6441 19.8143 22.4331 19.9731C22.2222 20.1294 22.0021 20.2414 21.773 20.3091C21.6167 20.356 21.4396 20.3794 21.2417 20.3794C21.0751 20.3794 20.8954 20.3612 20.7027 20.3247L20.6206 20.0356C20.8524 20.0877 21.0347 20.1138 21.1675 20.1138C21.3628 20.1138 21.5477 20.0669 21.7222 19.9731C21.8993 19.8768 22.036 19.7336 22.1323 19.5435C22.2313 19.3507 22.2808 19.1385 22.2808 18.9067C22.2808 18.6828 22.2326 18.481 22.1362 18.3013C22.0425 18.119 21.898 17.981 21.7027 17.8872C21.5099 17.7935 21.2756 17.7466 20.9995 17.7466C20.7521 17.7466 20.4865 17.7909 20.2027 17.8794C20.1792 18.1554 20.1675 18.5877 20.1675 19.1763V21.145C20.1675 21.4992 20.1714 21.8442 20.1792 22.1802C20.187 22.4276 20.2053 22.5747 20.2339 22.6216C20.2652 22.6685 20.3133 22.7036 20.3784 22.7271C20.4461 22.7479 20.6349 22.7609 20.9448 22.7661V23.0161C20.4631 22.9953 20.1089 22.9849 19.8823 22.9849C19.7938 22.9849 19.3862 22.9953 18.6597 23.0161V22.7661C18.967 22.7609 19.1545 22.7479 19.2222 22.7271C19.2899 22.7036 19.3368 22.6724 19.3628 22.6333C19.3941 22.5812 19.4136 22.4549 19.4214 22.2544C19.424 22.1997 19.4292 21.8299 19.437 21.145V19.3364C19.437 18.9823 19.4331 18.6359 19.4253 18.2974C19.4175 18.05 19.398 17.9041 19.3667 17.8599C19.3381 17.813 19.2899 17.7791 19.2222 17.7583C19.1571 17.7349 18.9696 17.7205 18.6597 17.7153ZM23.5931 17.7153V17.4653C23.8666 17.4757 24.1283 17.481 24.3783 17.481C24.6309 17.481 24.8731 17.4757 25.1048 17.4653C25.334 17.9862 25.5436 18.4432 25.7337 18.8364L27.2142 21.8833L28.5502 19.0903C28.9147 18.3299 29.1582 17.7882 29.2806 17.4653C29.5567 17.4757 29.7897 17.481 29.9798 17.481C30.1543 17.481 30.4369 17.4757 30.8275 17.4653V17.7153C30.5176 17.7205 30.3288 17.7349 30.2611 17.7583C30.196 17.7791 30.1504 17.8091 30.1244 17.8481C30.0905 17.9002 30.071 18.0265 30.0658 18.2271C30.0632 18.2791 30.0567 18.6489 30.0462 19.3364V21.145C30.0462 21.4992 30.0515 21.8442 30.0619 22.1802C30.0697 22.4276 30.0879 22.5747 30.1166 22.6216C30.1478 22.6685 30.196 22.7036 30.2611 22.7271C30.3288 22.7479 30.5176 22.7609 30.8275 22.7661V23.0161C30.3015 22.9927 29.9304 22.981 29.7142 22.981C29.5397 22.981 29.1543 22.9927 28.558 23.0161V22.7661C28.8679 22.7609 29.0567 22.7479 29.1244 22.7271C29.1921 22.7036 29.2377 22.6724 29.2611 22.6333C29.2949 22.5812 29.3145 22.4549 29.3197 22.2544C29.3223 22.1997 29.3288 21.8299 29.3392 21.145V18.2778L27.9916 21.0981C27.7806 21.5382 27.6153 21.8924 27.4955 22.1606C27.4095 22.356 27.2793 22.6659 27.1048 23.0903H26.9525C26.9186 22.9914 26.8874 22.9119 26.8587 22.8521L26.5931 22.2856L24.7259 18.4067V21.145C24.7259 21.4992 24.7311 21.8442 24.7416 22.1802C24.7494 22.4276 24.7676 22.5747 24.7962 22.6216C24.8275 22.6685 24.8757 22.7036 24.9408 22.7271C25.0085 22.7479 25.1973 22.7609 25.5072 22.7661V23.0161L24.5658 22.9849L23.5931 23.0161V22.7661C23.9004 22.7609 24.0879 22.7479 24.1556 22.7271C24.2233 22.7036 24.2702 22.6724 24.2962 22.6333C24.3275 22.5812 24.347 22.4549 24.3548 22.2544C24.3574 22.1997 24.3627 21.8299 24.3705 21.145V19.3364C24.3705 18.9823 24.3666 18.6359 24.3587 18.2974C24.3509 18.05 24.3314 17.9041 24.3002 17.8599C24.2715 17.813 24.2233 17.7791 24.1556 17.7583C24.0905 17.7349 23.903 17.7205 23.5931 17.7153Z" fill="white"/>
<path d="M5 13.7438L15.584 5.90381L26.168 13.7438L24.992 14.5278L16.368 7.86381L9.312 13.7438H5Z" fill="white"/>
</svg>
